<svg xmlns="http://www.w3.org/2000/svg" xmlns:xlink="http://www.w3.org/1999/xlink" width="110" height="18" viewBox="0 0 110 18"><defs><path id="s5z9a" d="M185.421 13.547h9.84v1.68h-3.84v15.12h-2.16v-15.12h-3.84zm14.035 15.12h6v1.68h-8.16v-16.8h8.16v1.68h-6v5.52h5.28v1.68h-5.28zm15.545-15.12h2.16l-3.24 8.16 3.6 8.64h-2.16l-3-7.2-3 7.2h-2.16l3.6-8.64-3.24-8.16h2.16l2.64 6.72zm13.975 0v16.8h-2.16v-7.68h-5.04v7.68h-2.16v-16.8h2.16v7.44h5.04v-7.44zm7.8-.24c.816 0 1.54.136 2.172.408.632.272 1.172.736 1.62 1.392.448.656.788 1.54 1.02 2.652.232 1.112.348 2.508.348 4.188 0 1.68-.116 3.076-.348 4.188-.232 1.112-.572 1.996-1.02 2.652-.448.656-.988 1.12-1.62 1.392-.632.272-1.356.408-2.172.408-.816 0-1.54-.136-2.172-.408-.632-.272-1.172-.736-1.62-1.392-.448-.656-.788-1.54-1.02-2.652-.232-1.112-.348-2.508-.348-4.188 0-1.68.116-3.076.348-4.188.232-1.112.572-1.996 1.02-2.652.448-.656.988-1.12 1.62-1.392.632-.272 1.356-.408 2.172-.408zm0 15.84c.384 0 .76-.104 1.128-.312.368-.208.688-.584.96-1.128.272-.544.492-1.28.66-2.208.168-.928.252-2.112.252-3.552s-.084-2.624-.252-3.552c-.168-.928-.388-1.664-.66-2.208-.272-.544-.592-.92-.96-1.128a2.27 2.27 0 0 0-1.128-.312c-.384 0-.76.104-1.128.312-.368.208-.688.584-.96 1.128-.272.544-.492 1.28-.66 2.208-.168.928-.252 2.112-.252 3.552s.084 2.624.252 3.552c.168.928.388 1.664.66 2.208.272.544.592.92.96 1.128.368.208.744.312 1.128.312zm13.831-.96l-3.48-10.32h-.12l-.72 12.48h-2.16l.96-16.8h2.64l3.912 11.52h.096l3.912-11.52h2.64l.96 16.8h-2.16l-.72-12.48h-.12l-3.48 10.32zm13.857-2.16l-1.08 4.32h-2.16l4.08-16.8h3.12l4.08 16.8h-2.16l-1.08-4.32zm2.448-10.08h-.096l-1.992 8.4h4.08zm11.573 7.8c.544 0 1.012-.068 1.404-.204.392-.136.716-.372.972-.708.256-.336.444-.792.564-1.368.12-.576.18-1.296.18-2.16 0-.864-.06-1.584-.18-2.16-.12-.576-.308-1.032-.564-1.368a2.042 2.042 0 0 0-.972-.708c-.392-.136-.86-.204-1.404-.204h-1.68v8.88zm-1.68 6.6h-2.16v-16.56c.608-.176 1.22-.3 1.836-.372a17.286 17.286 0 0 1 2.004-.108c.96 0 1.776.1 2.448.3.672.2 1.216.532 1.632.996.416.464.72 1.08.912 1.848.192.768.288 1.72.288 2.856 0 1.168-.092 2.144-.276 2.928-.184.784-.464 1.412-.84 1.884a3.087 3.087 0 0 1-1.416 1.008c-.568.2-1.244.3-2.028.3-.368 0-.784-.024-1.248-.072a11.432 11.432 0 0 1-1.152-.168zm8.373-16.8h9.84v1.68h-3.84v15.12h-2.16v-15.12h-3.84z"/></defs><g><g transform="translate(-185 -13)"><use fill="#fff" xlink:href="#s5z9a"/></g></g></svg>