<svg 
 xmlns="http://www.w3.org/2000/svg"
 xmlns:xlink="http://www.w3.org/1999/xlink"
 width="111px" height="18px">
<path fill-rule="evenodd"  fill="rgb(255, 255, 255)"
 d="M106.178,2.227 L106.178,17.347 L104.018,17.347 L104.018,2.227 L100.178,2.227 L100.178,0.547 L110.018,0.547 L110.018,2.227 L106.178,2.227 ZM97.649,11.119 C97.273,11.591 96.801,11.927 96.233,12.127 C95.665,12.327 94.989,12.427 94.205,12.427 C93.837,12.427 93.421,12.403 92.957,12.355 C92.493,12.307 92.109,12.251 91.805,12.187 L91.805,17.347 L89.645,17.347 L89.645,0.787 C90.253,0.611 90.865,0.487 91.481,0.415 C92.097,0.343 92.765,0.307 93.485,0.307 C94.445,0.307 95.261,0.407 95.933,0.607 C96.605,0.807 97.149,1.139 97.565,1.603 C97.981,2.067 98.285,2.683 98.477,3.451 C98.669,4.219 98.765,5.171 98.765,6.307 C98.765,7.475 98.673,8.451 98.489,9.235 C98.305,10.019 98.025,10.647 97.649,11.119 ZM96.425,4.147 C96.305,3.571 96.117,3.115 95.861,2.779 C95.605,2.443 95.281,2.207 94.889,2.071 C94.497,1.935 94.029,1.867 93.485,1.867 L91.805,1.867 L91.805,10.747 L93.485,10.747 C94.029,10.747 94.497,10.679 94.889,10.543 C95.281,10.407 95.605,10.171 95.861,9.835 C96.117,9.499 96.305,9.043 96.425,8.467 C96.545,7.891 96.605,7.171 96.605,6.307 C96.605,5.443 96.545,4.723 96.425,4.147 ZM84.264,13.027 L79.464,13.027 L78.384,17.347 L76.224,17.347 L80.304,0.547 L83.424,0.547 L87.504,17.347 L85.344,17.347 L84.264,13.027 ZM81.912,2.947 L81.816,2.947 L79.824,11.347 L83.904,11.347 L81.912,2.947 ZM71.367,4.867 L71.247,4.867 L67.767,15.187 L65.607,15.187 L62.127,4.867 L62.007,4.867 L61.287,17.347 L59.127,17.347 L60.087,0.547 L62.727,0.547 L66.639,12.067 L66.735,12.067 L70.647,0.547 L73.287,0.547 L74.247,17.347 L72.087,17.347 L71.367,4.867 ZM55.568,15.787 C55.120,16.443 54.580,16.907 53.948,17.179 C53.316,17.451 52.592,17.587 51.776,17.587 C50.960,17.587 50.236,17.451 49.604,17.179 C48.972,16.907 48.432,16.443 47.984,15.787 C47.536,15.131 47.196,14.247 46.964,13.135 C46.732,12.023 46.616,10.627 46.616,8.947 C46.616,7.267 46.732,5.871 46.964,4.759 C47.196,3.647 47.536,2.763 47.984,2.107 C48.432,1.451 48.972,0.987 49.604,0.715 C50.236,0.443 50.960,0.307 51.776,0.307 C52.592,0.307 53.316,0.443 53.948,0.715 C54.580,0.987 55.120,1.451 55.568,2.107 C56.016,2.763 56.356,3.647 56.588,4.759 C56.820,5.871 56.936,7.267 56.936,8.947 C56.936,10.627 56.820,12.023 56.588,13.135 C56.356,14.247 56.016,15.131 55.568,15.787 ZM54.524,5.395 C54.356,4.467 54.136,3.731 53.864,3.187 C53.592,2.643 53.272,2.267 52.904,2.059 C52.536,1.851 52.160,1.747 51.776,1.747 C51.392,1.747 51.016,1.851 50.648,2.059 C50.280,2.267 49.960,2.643 49.688,3.187 C49.416,3.731 49.196,4.467 49.028,5.395 C48.860,6.323 48.776,7.507 48.776,8.947 C48.776,10.387 48.860,11.571 49.028,12.499 C49.196,13.427 49.416,14.163 49.688,14.707 C49.960,15.251 50.280,15.627 50.648,15.835 C51.016,16.043 51.392,16.147 51.776,16.147 C52.160,16.147 52.536,16.043 52.904,15.835 C53.272,15.627 53.592,15.251 53.864,14.707 C54.136,14.163 54.356,13.427 54.524,12.499 C54.692,11.571 54.776,10.387 54.776,8.947 C54.776,7.507 54.692,6.323 54.524,5.395 ZM41.816,9.667 L36.776,9.667 L36.776,17.347 L34.616,17.347 L34.616,0.547 L36.776,0.547 L36.776,7.987 L41.816,7.987 L41.816,0.547 L43.976,0.547 L43.976,17.347 L41.816,17.347 L41.816,9.667 ZM30.361,17.347 L27.361,10.147 L24.361,17.347 L22.201,17.347 L25.801,8.707 L22.561,0.547 L24.721,0.547 L27.361,7.267 L30.001,0.547 L32.161,0.547 L28.921,8.707 L32.521,17.347 L30.361,17.347 ZM12.296,0.547 L20.456,0.547 L20.456,2.227 L14.456,2.227 L14.456,7.747 L19.736,7.747 L19.736,9.427 L14.456,9.427 L14.456,15.667 L20.456,15.667 L20.456,17.347 L12.296,17.347 L12.296,0.547 ZM6.421,17.347 L4.261,17.347 L4.261,2.227 L0.421,2.227 L0.421,0.547 L10.261,0.547 L10.261,2.227 L6.421,2.227 L6.421,17.347 Z"/>
</svg>